<svg width="1058" height="162" viewBox="0 0 1058 162" fill="none" xmlns="http://www.w3.org/2000/svg">
<mask id="path-1-outside-1_714_1033" maskUnits="userSpaceOnUse" x="0" y="0" width="1058" height="162" fill="black">
<rect fill="white" width="1058" height="162"/>
<path d="M1 158.721V3.12726H63.2982C74.7449 3.12726 84.2922 4.824 91.9402 8.21748C99.5882 11.611 105.337 16.3213 109.186 22.3485C113.035 28.3251 114.96 35.2134 114.96 43.0133C114.96 49.0912 113.745 54.4346 111.313 59.0437C108.882 63.6021 105.539 67.3501 101.285 70.2878C97.081 73.1747 92.2694 75.226 86.85 76.4416V77.9611C92.7759 78.2143 98.3219 79.8857 103.488 82.9753C108.705 86.0649 112.934 90.3954 116.176 95.9668C119.417 101.487 121.038 108.072 121.038 115.72C121.038 123.976 118.987 131.345 114.884 137.828C110.832 144.261 104.83 149.351 96.8784 153.099C88.9266 156.847 79.126 158.721 67.4767 158.721H1ZM33.8965 131.826H60.7151C69.8826 131.826 76.5682 130.079 80.7721 126.584C84.9759 123.039 87.0779 118.328 87.0779 112.453C87.0779 108.148 86.0396 104.349 83.963 101.057C81.8864 97.7648 78.9234 95.1817 75.0741 93.3077C71.2754 91.4337 66.7423 90.4967 61.4748 90.4967H33.8965V131.826ZM33.8965 68.2365H58.2839C62.7917 68.2365 66.793 67.4514 70.2877 65.8813C73.8332 64.2605 76.6189 61.9813 78.6448 59.0437C80.7214 56.106 81.7597 52.5859 81.7597 48.4834C81.7597 42.8614 79.7591 38.3283 75.7578 34.8841C71.8072 31.44 66.1852 29.7179 58.8917 29.7179H33.8965V68.2365Z"/>
<path d="M174.2 3.12726V158.721H141.836V3.12726H174.2Z"/>
<path d="M252.852 161C241.051 161 230.845 158.493 222.235 153.479C213.675 148.414 207.065 141.374 202.405 132.358C197.746 123.292 195.416 112.782 195.416 100.829C195.416 88.7746 197.746 78.2396 202.405 69.2241C207.065 60.158 213.675 53.1178 222.235 48.1035C230.845 43.0386 241.051 40.5062 252.852 40.5062C264.653 40.5062 274.833 43.0386 283.393 48.1035C292.003 53.1178 298.638 60.158 303.298 69.2241C307.958 78.2396 310.288 88.7746 310.288 100.829C310.288 112.782 307.958 123.292 303.298 132.358C298.638 141.374 292.003 148.414 283.393 153.479C274.833 158.493 264.653 161 252.852 161ZM253.004 135.929C258.373 135.929 262.855 134.409 266.451 131.37C270.047 128.281 272.757 124.077 274.58 118.759C276.454 113.441 277.391 107.388 277.391 100.601C277.391 93.8142 276.454 87.7616 274.58 82.4435C272.757 77.1254 270.047 72.9215 266.451 69.8319C262.855 66.7423 258.373 65.1975 253.004 65.1975C247.584 65.1975 243.026 66.7423 239.329 69.8319C235.682 72.9215 232.921 77.1254 231.047 82.4435C229.224 87.7616 228.312 93.8142 228.312 100.601C228.312 107.388 229.224 113.441 231.047 118.759C232.921 124.077 235.682 128.281 239.329 131.37C243.026 134.409 247.584 135.929 253.004 135.929Z"/>
<path d="M384.058 161C372.105 161 361.823 158.468 353.213 153.403C344.653 148.287 338.069 141.196 333.46 132.13C328.901 123.064 326.622 112.63 326.622 100.829C326.622 88.8759 328.927 78.3916 333.536 69.3761C338.195 60.3099 344.805 53.2444 353.365 48.1795C361.924 43.0639 372.105 40.5062 383.906 40.5062C394.086 40.5062 403.001 42.3549 410.649 46.0522C418.297 49.7496 424.349 54.9411 428.806 61.6268C433.263 68.3124 435.72 76.163 436.176 85.1785H405.634C404.773 79.3539 402.494 74.6689 398.797 71.1235C395.15 67.5274 390.364 65.7293 384.438 65.7293C379.424 65.7293 375.042 67.0969 371.294 69.8319C367.597 72.5163 364.71 76.4416 362.633 81.6078C360.557 86.774 359.519 93.0291 359.519 100.373C359.519 107.819 360.531 114.15 362.557 119.367C364.634 124.583 367.546 128.559 371.294 131.294C375.042 134.029 379.424 135.397 384.438 135.397C388.135 135.397 391.453 134.637 394.39 133.118C397.379 131.598 399.835 129.395 401.76 126.508C403.735 123.57 405.027 120.05 405.634 115.948H436.176C435.669 124.862 433.238 132.713 428.882 139.5C424.577 146.236 418.626 151.503 411.028 155.302C403.431 159.101 394.441 161 384.058 161Z"/>
<path d="M486.223 125.141L486.299 86.3181H491.009L528.388 42.0256H565.539L515.321 100.677H507.648L486.223 125.141ZM456.897 158.721V3.12726H489.262V158.721H456.897ZM529.832 158.721L495.492 107.895L517.068 85.0266L567.743 158.721H529.832Z"/>
<path d="M719.31 57.6002H686.033C685.425 53.295 684.185 49.471 682.311 46.1282C680.437 42.7347 678.031 39.8477 675.093 37.4672C672.155 35.0867 668.762 33.2634 664.913 31.9972C661.114 30.7309 656.986 30.0978 652.529 30.0978C644.476 30.0978 637.461 32.0985 631.484 36.0997C625.508 40.0503 620.873 45.8243 617.581 53.4217C614.289 60.9683 612.643 70.1358 612.643 80.924C612.643 92.0161 614.289 101.336 617.581 108.882C620.924 116.429 625.584 122.127 631.56 125.976C637.537 129.826 644.45 131.75 652.301 131.75C656.707 131.75 660.785 131.168 664.533 130.003C668.331 128.838 671.7 127.141 674.637 124.913C677.575 122.633 680.006 119.873 681.931 116.632C683.906 113.39 685.273 109.693 686.033 105.539L719.31 105.691C718.449 112.833 716.296 119.721 712.852 126.356C709.458 132.94 704.875 138.841 699.101 144.058C693.377 149.224 686.54 153.327 678.588 156.366C670.687 159.354 661.747 160.848 651.769 160.848C637.891 160.848 625.482 157.708 614.542 151.427C603.653 145.147 595.042 136.055 588.711 124.153C582.431 112.25 579.291 97.8408 579.291 80.924C579.291 63.9566 582.481 49.5217 588.863 37.6192C595.245 25.7167 603.906 16.6505 614.846 10.4207C625.786 4.14024 638.094 1 651.769 1C660.785 1 669.142 2.26622 676.84 4.79867C684.59 7.33112 691.453 11.0285 697.429 15.8908C703.406 20.7024 708.268 26.603 712.016 33.5926C715.815 40.5821 718.246 48.5847 719.31 57.6002Z"/>
<path d="M742.899 3.12726H783.469L826.318 107.667H828.141L870.99 3.12726H911.56V158.721H879.651V57.4482H878.36L838.094 157.961H816.366L776.1 57.0684H774.808V158.721H742.899V3.12726Z"/>
<path d="M1023.07 47.8756C1022.46 41.7471 1019.85 36.9861 1015.24 33.5926C1010.64 30.1991 1004.38 28.5024 996.48 28.5024C991.111 28.5024 986.578 29.2621 982.88 30.7816C979.183 32.2504 976.347 34.3017 974.371 36.9354C972.447 39.5692 971.484 42.5575 971.484 45.9003C971.383 48.686 971.965 51.1171 973.232 53.1937C974.549 55.2703 976.347 57.0684 978.626 58.5878C980.905 60.0567 983.539 61.3482 986.527 62.4625C989.515 63.5261 992.706 64.4378 996.1 65.1975L1010.08 68.5404C1016.87 70.0598 1023.1 72.0858 1028.77 74.6182C1034.44 77.1507 1039.35 80.2656 1043.51 83.963C1047.66 87.6603 1050.88 92.0161 1053.16 97.0304C1055.49 102.045 1056.68 107.793 1056.73 114.276C1056.68 123.798 1054.24 132.054 1049.43 139.044C1044.67 145.983 1037.78 151.377 1028.77 155.226C1019.8 159.025 1008.99 160.924 996.328 160.924C983.767 160.924 972.827 158.999 963.507 155.15C954.238 151.301 946.996 145.603 941.779 138.056C936.613 130.459 933.903 121.063 933.65 109.87H965.482C965.837 115.087 967.331 119.443 969.965 122.937C972.649 126.381 976.22 128.99 980.677 130.763C985.185 132.485 990.275 133.346 995.948 133.346C1001.52 133.346 1006.36 132.535 1010.46 130.915C1014.61 129.294 1017.83 127.04 1020.11 124.153C1022.39 121.266 1023.53 117.948 1023.53 114.2C1023.53 110.706 1022.49 107.768 1020.41 105.387C1018.39 103.007 1015.4 100.981 1011.45 99.3096C1007.55 97.6382 1002.76 96.1187 997.087 94.7512L980.145 90.4967C967.027 87.3058 956.669 82.3169 949.072 75.5299C941.475 68.743 937.701 59.6008 937.752 48.1035C937.701 38.6828 940.209 30.4524 945.273 23.4122C950.389 16.372 957.404 10.8765 966.318 6.92593C975.232 2.97531 985.362 1 996.707 1C1008.26 1 1018.33 2.97531 1026.94 6.92593C1035.61 10.8765 1042.34 16.372 1047.15 23.4122C1051.97 30.4524 1054.45 38.6068 1054.6 47.8756H1023.07Z"/>
</mask>
<path d="M1 158.721V3.12726H63.2982C74.7449 3.12726 84.2922 4.824 91.9402 8.21748C99.5882 11.611 105.337 16.3213 109.186 22.3485C113.035 28.3251 114.96 35.2134 114.96 43.0133C114.96 49.0912 113.745 54.4346 111.313 59.0437C108.882 63.6021 105.539 67.3501 101.285 70.2878C97.081 73.1747 92.2694 75.226 86.85 76.4416V77.9611C92.7759 78.2143 98.3219 79.8857 103.488 82.9753C108.705 86.0649 112.934 90.3954 116.176 95.9668C119.417 101.487 121.038 108.072 121.038 115.72C121.038 123.976 118.987 131.345 114.884 137.828C110.832 144.261 104.83 149.351 96.8784 153.099C88.9266 156.847 79.126 158.721 67.4767 158.721H1ZM33.8965 131.826H60.7151C69.8826 131.826 76.5682 130.079 80.7721 126.584C84.9759 123.039 87.0779 118.328 87.0779 112.453C87.0779 108.148 86.0396 104.349 83.963 101.057C81.8864 97.7648 78.9234 95.1817 75.0741 93.3077C71.2754 91.4337 66.7423 90.4967 61.4748 90.4967H33.8965V131.826ZM33.8965 68.2365H58.2839C62.7917 68.2365 66.793 67.4514 70.2877 65.8813C73.8332 64.2605 76.6189 61.9813 78.6448 59.0437C80.7214 56.106 81.7597 52.5859 81.7597 48.4834C81.7597 42.8614 79.7591 38.3283 75.7578 34.8841C71.8072 31.44 66.1852 29.7179 58.8917 29.7179H33.8965V68.2365Z" stroke="#EDF2F7" stroke-width="2" mask="url(#path-1-outside-1_714_1033)"/>
<path d="M174.2 3.12726V158.721H141.836V3.12726H174.2Z" stroke="#EDF2F7" stroke-width="2" mask="url(#path-1-outside-1_714_1033)"/>
<path d="M252.852 161C241.051 161 230.845 158.493 222.235 153.479C213.675 148.414 207.065 141.374 202.405 132.358C197.746 123.292 195.416 112.782 195.416 100.829C195.416 88.7746 197.746 78.2396 202.405 69.2241C207.065 60.158 213.675 53.1178 222.235 48.1035C230.845 43.0386 241.051 40.5062 252.852 40.5062C264.653 40.5062 274.833 43.0386 283.393 48.1035C292.003 53.1178 298.638 60.158 303.298 69.2241C307.958 78.2396 310.288 88.7746 310.288 100.829C310.288 112.782 307.958 123.292 303.298 132.358C298.638 141.374 292.003 148.414 283.393 153.479C274.833 158.493 264.653 161 252.852 161ZM253.004 135.929C258.373 135.929 262.855 134.409 266.451 131.37C270.047 128.281 272.757 124.077 274.58 118.759C276.454 113.441 277.391 107.388 277.391 100.601C277.391 93.8142 276.454 87.7616 274.58 82.4435C272.757 77.1254 270.047 72.9215 266.451 69.8319C262.855 66.7423 258.373 65.1975 253.004 65.1975C247.584 65.1975 243.026 66.7423 239.329 69.8319C235.682 72.9215 232.921 77.1254 231.047 82.4435C229.224 87.7616 228.312 93.8142 228.312 100.601C228.312 107.388 229.224 113.441 231.047 118.759C232.921 124.077 235.682 128.281 239.329 131.37C243.026 134.409 247.584 135.929 253.004 135.929Z" stroke="#EDF2F7" stroke-width="2" mask="url(#path-1-outside-1_714_1033)"/>
<path d="M384.058 161C372.105 161 361.823 158.468 353.213 153.403C344.653 148.287 338.069 141.196 333.46 132.13C328.901 123.064 326.622 112.63 326.622 100.829C326.622 88.8759 328.927 78.3916 333.536 69.3761C338.195 60.3099 344.805 53.2444 353.365 48.1795C361.924 43.0639 372.105 40.5062 383.906 40.5062C394.086 40.5062 403.001 42.3549 410.649 46.0522C418.297 49.7496 424.349 54.9411 428.806 61.6268C433.263 68.3124 435.72 76.163 436.176 85.1785H405.634C404.773 79.3539 402.494 74.6689 398.797 71.1235C395.15 67.5274 390.364 65.7293 384.438 65.7293C379.424 65.7293 375.042 67.0969 371.294 69.8319C367.597 72.5163 364.71 76.4416 362.633 81.6078C360.557 86.774 359.519 93.0291 359.519 100.373C359.519 107.819 360.531 114.15 362.557 119.367C364.634 124.583 367.546 128.559 371.294 131.294C375.042 134.029 379.424 135.397 384.438 135.397C388.135 135.397 391.453 134.637 394.39 133.118C397.379 131.598 399.835 129.395 401.76 126.508C403.735 123.57 405.027 120.05 405.634 115.948H436.176C435.669 124.862 433.238 132.713 428.882 139.5C424.577 146.236 418.626 151.503 411.028 155.302C403.431 159.101 394.441 161 384.058 161Z" stroke="#EDF2F7" stroke-width="2" mask="url(#path-1-outside-1_714_1033)"/>
<path d="M486.223 125.141L486.299 86.3181H491.009L528.388 42.0256H565.539L515.321 100.677H507.648L486.223 125.141ZM456.897 158.721V3.12726H489.262V158.721H456.897ZM529.832 158.721L495.492 107.895L517.068 85.0266L567.743 158.721H529.832Z" stroke="#EDF2F7" stroke-width="2" mask="url(#path-1-outside-1_714_1033)"/>
<path d="M719.31 57.6002H686.033C685.425 53.295 684.185 49.471 682.311 46.1282C680.437 42.7347 678.031 39.8477 675.093 37.4672C672.155 35.0867 668.762 33.2634 664.913 31.9972C661.114 30.7309 656.986 30.0978 652.529 30.0978C644.476 30.0978 637.461 32.0985 631.484 36.0997C625.508 40.0503 620.873 45.8243 617.581 53.4217C614.289 60.9683 612.643 70.1358 612.643 80.924C612.643 92.0161 614.289 101.336 617.581 108.882C620.924 116.429 625.584 122.127 631.56 125.976C637.537 129.826 644.45 131.75 652.301 131.75C656.707 131.75 660.785 131.168 664.533 130.003C668.331 128.838 671.7 127.141 674.637 124.913C677.575 122.633 680.006 119.873 681.931 116.632C683.906 113.39 685.273 109.693 686.033 105.539L719.31 105.691C718.449 112.833 716.296 119.721 712.852 126.356C709.458 132.94 704.875 138.841 699.101 144.058C693.377 149.224 686.54 153.327 678.588 156.366C670.687 159.354 661.747 160.848 651.769 160.848C637.891 160.848 625.482 157.708 614.542 151.427C603.653 145.147 595.042 136.055 588.711 124.153C582.431 112.25 579.291 97.8408 579.291 80.924C579.291 63.9566 582.481 49.5217 588.863 37.6192C595.245 25.7167 603.906 16.6505 614.846 10.4207C625.786 4.14024 638.094 1 651.769 1C660.785 1 669.142 2.26622 676.84 4.79867C684.59 7.33112 691.453 11.0285 697.429 15.8908C703.406 20.7024 708.268 26.603 712.016 33.5926C715.815 40.5821 718.246 48.5847 719.31 57.6002Z" stroke="#EDF2F7" stroke-width="2" mask="url(#path-1-outside-1_714_1033)"/>
<path d="M742.899 3.12726H783.469L826.318 107.667H828.141L870.99 3.12726H911.56V158.721H879.651V57.4482H878.36L838.094 157.961H816.366L776.1 57.0684H774.808V158.721H742.899V3.12726Z" stroke="#EDF2F7" stroke-width="2" mask="url(#path-1-outside-1_714_1033)"/>
<path d="M1023.07 47.8756C1022.46 41.7471 1019.85 36.9861 1015.24 33.5926C1010.64 30.1991 1004.38 28.5024 996.48 28.5024C991.111 28.5024 986.578 29.2621 982.88 30.7816C979.183 32.2504 976.347 34.3017 974.371 36.9354C972.447 39.5692 971.484 42.5575 971.484 45.9003C971.383 48.686 971.965 51.1171 973.232 53.1937C974.549 55.2703 976.347 57.0684 978.626 58.5878C980.905 60.0567 983.539 61.3482 986.527 62.4625C989.515 63.5261 992.706 64.4378 996.1 65.1975L1010.08 68.5404C1016.87 70.0598 1023.1 72.0858 1028.77 74.6182C1034.44 77.1507 1039.35 80.2656 1043.51 83.963C1047.66 87.6603 1050.88 92.0161 1053.16 97.0304C1055.49 102.045 1056.68 107.793 1056.73 114.276C1056.68 123.798 1054.24 132.054 1049.43 139.044C1044.67 145.983 1037.78 151.377 1028.77 155.226C1019.8 159.025 1008.99 160.924 996.328 160.924C983.767 160.924 972.827 158.999 963.507 155.15C954.238 151.301 946.996 145.603 941.779 138.056C936.613 130.459 933.903 121.063 933.65 109.87H965.482C965.837 115.087 967.331 119.443 969.965 122.937C972.649 126.381 976.22 128.99 980.677 130.763C985.185 132.485 990.275 133.346 995.948 133.346C1001.52 133.346 1006.36 132.535 1010.46 130.915C1014.61 129.294 1017.83 127.04 1020.11 124.153C1022.39 121.266 1023.53 117.948 1023.53 114.2C1023.53 110.706 1022.49 107.768 1020.41 105.387C1018.39 103.007 1015.4 100.981 1011.45 99.3096C1007.55 97.6382 1002.76 96.1187 997.087 94.7512L980.145 90.4967C967.027 87.3058 956.669 82.3169 949.072 75.5299C941.475 68.743 937.701 59.6008 937.752 48.1035C937.701 38.6828 940.209 30.4524 945.273 23.4122C950.389 16.372 957.404 10.8765 966.318 6.92593C975.232 2.97531 985.362 1 996.707 1C1008.26 1 1018.33 2.97531 1026.94 6.92593C1035.61 10.8765 1042.34 16.372 1047.15 23.4122C1051.97 30.4524 1054.45 38.6068 1054.6 47.8756H1023.07Z" stroke="#EDF2F7" stroke-width="2" mask="url(#path-1-outside-1_714_1033)"/>
</svg>